#!OML:ASF X:\für Bonn\!DataBase\2005_08_12_Daniel\c3d\Daniel.ASF
:FULLY-SPECIFIED
:DEGREES
278
root 0.29023 12.5053 -14.9167 342.045 23.9031 0.204746
lowerback 63.3166 -4.0902 6.17778
upperback 11.2371 -0.0487558 -1.51001
thorax -8.73787 0.543737 -4.3643
lowerneck 2.38247 -5.32904 -2.15406
upperneck 11.7709 -7.47705 5.44711
head 3.7545 -3.54037 1.98784
rclavicle -1.11319e-014 -2.74323e-014
rhumerus 19.7471 -17.1104 -108.039
rradius 7.93524
rwrist 31.5414
rhand -17.645 8.57504
rfingers 7.12502
rthumb 8.61297 -21.2293
lclavicle -1.11319e-014 -2.74323e-014
lhumerus -13.4478 20.3783 89.4559
lradius 32.6818
lwrist -19.9062
lhand -11.6859 -8.54182
lfingers 7.12502
lthumb 14.3597 20.9415
rfemur -37.0754 -35.3626 -2.06725
rtibia 109.964
rfoot -14.9932 -327.023
rtoes 5.71567
lfemur -48.0308 9.64653 -16.6422
ltibia 107.901
lfoot -31.6994 -28.1628
ltoes 4.94928
279
root 0.308841 12.6557 -14.9088 342.436 23.7928 0.124762
lowerback 62.6539 -4.0081 6.16105
upperback 11.2415 -0.043507 -1.51003
thorax -8.73473 0.532134 -4.36694
lowerneck 2.36528 -5.30361 -2.05088
upperneck 11.5982 -7.42845 5.32383
head 3.6821 -3.52037 1.92937
rclavicle 4.85035e-014 -4.8901e-014
rhumerus 18.6008 -13.5463 -106.329
rradius 9.05121
rwrist 26.9031
rhand -17.0362 9.23483
rfingers 7.12502
rthumb 9.20037 -20.5445
lclavicle 4.85035e-014 -4.8901e-014
lhumerus -13.5698 20.8332 89.2861
lradius 32.4383
lwrist -20.168
lhand -11.6355 -8.60543
lfingers 7.12502
lthumb 14.4083 20.8745
rfemur -36.7906 -34.466 -1.0964
rtibia 108.428
rfoot -15.1477 -327.725
rtoes 5.68554
lfemur -47.3014 9.2491 -16.7539
ltibia 106.428
lfoot -31.7655 -27.7781
ltoes 4.75464
280
root 0.327208 12.8049 -14.9003 342.816 23.6884 0.0309474
lowerback 62.0103 -3.94393 6.17022
upperback 11.2279 -0.0421223 -1.52649
thorax -8.74771 0.519647 -4.39741
lowerneck 2.40127 -5.27392 -1.98289
upperneck 11.367 -7.37705 5.25646
head 3.58424 -3.50051 1.89771
rclavicle 2.94201e-014 -3.26007e-014
rhumerus 17.574 -9.96141 -104.785
rradius 10.1564
rwrist 22.2413
rhand -16.4995 9.78314
rfingers 7.12502
rthumb 9.71827 -19.9726
lclavicle 2.94201e-014 -3.26007e-014
lhumerus -13.6938 21.161 89.0814
lradius 32.1992
lwrist -20.2996
lhand -11.6278 -8.61239
lfingers 7.12502
lthumb 14.4156 20.867
rfemur -36.4678 -33.6324 -0.16886
rtibia 106.875
rfoot -15.3309 -328.395
rtoes 5.66479
lfemur -46.558 8.85092 -16.8418
ltibia 104.94
lfoot -31.8294 -27.4228
ltoes 4.48201
281
root 0.345746 12.9526 -14.8921 343.227 23.6053 -0.0486187
lowerback 61.343 -3.87477 6.14884
upperback 11.2082 -0.0518776 -1.52273
thorax -8.76498 0.499832 -4.38735
lowerneck 2.34767 -5.24595 -1.98893
upperneck 11.2239 -7.3312 5.18678
head 3.53823 -3.4835 1.87574
rclavicle -3.29983e-014 -6.36111e-015
rhumerus 16.5736 -5.76601 -103.109
rradius 11.3836
rwrist 16.9067
rhand -15.971 10.0869
rfingers 7.12502
rthumb 10.2282 -19.6444
lclavicle -3.29983e-014 -6.36111e-015
lhumerus -13.8193 21.6044 88.9125
lradius 31.9608
lwrist -20.536
lhand -11.5985 -8.63858
lfingers 7.12502
lthumb 14.4439 20.8388
rfemur -36.1391 -32.8625 0.676423
rtibia 105.33
rfoot -15.4795 -329.043
rtoes 5.6722
lfemur -45.8661 8.44987 -16.954
ltibia 103.449
lfoot -31.8716 -27.0683
ltoes 4.32466
282
root 0.364517 13.0993 -14.8848 343.653 23.5136 -0.124421
lowerback 60.6799 -3.80437 6.1364
upperback 11.1725 -0.0566589 -1.53634
thorax -8.79602 0.482666 -4.40308
lowerneck 2.32538 -5.22813 -1.97459
upperneck 11.0344 -7.29773 5.12183
head 3.47018 -3.47283 1.8524
rclavicle -1.59028e-015 -1.23246e-014
rhumerus 15.7018 -2.38285 -101.815
rradius 12.6241
rwrist 12.4419
rhand -15.4237 10.3374
rfingers 7.12502
rthumb 10.7561 -19.3672
lclavicle -1.59028e-015 -1.23246e-014
lhumerus -13.9564 21.9828 88.7381
lradius 31.7686
lwrist -20.694
lhand -11.5849 -8.63614
lfingers 7.12502
lthumb 14.457 20.8403
rfemur -35.8327 -32.1323 1.50259
rtibia 103.776
rfoot -15.6855 -329.675
rtoes 5.515
lfemur -45.1939 8.03875 -17.0683
ltibia 101.953
lfoot -31.9065 -26.7026
ltoes 4.05676
283
root 0.38357 13.2467 -14.8756 344.04 23.4241 -0.22252
lowerback 60.0612 -3.74763 6.1425
upperback 11.1167 -0.060735 -1.55034
thorax -8.84602 0.465437 -4.42719
lowerneck 2.21301 -5.21386 -2.02094
upperneck 10.9074 -7.27609 5.1078
head 3.44704 -3.46642 1.85403
rclavicle 3.18055e-015 -1.07344e-014
rhumerus 14.8132 0.765124 -100.609
rradius 14.0061
rwrist 8.15971
rhand -14.8546 10.4409
rfingers 7.12502
rthumb 11.3049 -19.2345
lclavicle 3.18055e-015 -1.07344e-014
lhumerus -14.1103 22.3059 88.5466
lradius 31.59
lwrist -20.8034
lhand -11.5737 -8.54359
lfingers 7.12502
lthumb 14.4678 20.9321
rfemur -35.3847 -31.416 2.27286
rtibia 102.178
rfoot -15.8443 -330.26
rtoes 5.46629
lfemur -44.4724 7.64951 -17.1472
ltibia 100.447
lfoot -31.9841 -26.3183
ltoes 3.75039
284
root 0.402329 13.3892 -14.8663 344.446 23.3371 -0.298464
lowerback 59.3847 -3.68259 6.13368
upperback 11.0796 -0.0698544 -1.57381
thorax -8.87005 0.447512 -4.45367
lowerneck 2.12601 -5.19265 -2.11821
upperneck 10.7522 -7.24831 5.14576
head 3.41439 -3.45818 1.88294
rclavicle -3.97569e-014 4.09496e-014
rhumerus 13.9274 3.71397 -99.4865
rradius 15.4863
rwrist 4.16183
rhand -14.3104 10.479
rfingers 7.12502
rthumb 11.8298 -19.1668
lclavicle -3.97569e-014 4.09496e-014
lhumerus -14.244 22.6413 88.3492
lradius 31.4058
lwrist -20.9265
lhand -11.5688 -8.38755
lfingers 7.12502
lthumb 14.4725 21.0877
rfemur -34.9763 -30.7635 2.98294
rtibia 100.619
rfoot -16.0567 -330.836
rtoes 5.36322
lfemur -43.7842 7.25768 -17.2371
ltibia 98.9451
lfoot -31.9914 -25.9645
ltoes 3.61631
285
root 0.422006 13.5329 -14.8549 344.842 23.2703 -0.378042
lowerback 58.672 -3.61611 6.12443
upperback 11.0467 -0.07739 -1.58601
thorax -8.88257 0.430037 -4.46834
lowerneck 2.06167 -5.17327 -2.20758
upperneck 10.6013 -7.22157 5.1707
head 3.37802 -3.45059 1.90665
rclavicle -3.97569e-015 -1.31198e-014
rhumerus 13.0256 6.15086 -98.5371
rradius 17.0005
rwrist 0.72722
rhand -13.7487 10.5578
rfingers 7.12502
rthumb 12.3714 -19.0561
lclavicle -3.97569e-015 -1.31198e-014
lhumerus -14.4038 22.9793 88.1691
lradius 31.2563
lwrist -21.0608
lhand -11.5726 -8.15619
lfingers 7.12502
lthumb 14.4688 21.3194
rfemur -34.4867 -30.1594 3.63579
rtibia 99.0315
rfoot -16.3044 -331.374
rtoes 5.18731
lfemur -43.0595 6.83972 -17.3376
ltibia 97.4075
lfoot -32.0268 -25.5697
ltoes 3.34305
286
root 0.4428 13.6751 -14.8421 345.239 23.1837 -0.451831
lowerback 57.9339 -3.526 6.07659
upperback 11.0276 -0.0788588 -1.58009
thorax -8.87352 0.41462 -4.44862
lowerneck 1.90324 -5.16212 -2.35251
upperneck 10.4845 -7.20655 5.19355
head 3.37418 -3.44911 1.93673
rclavicle 1.31198e-014 -1.98785e-014
rhumerus 12.1708 8.33303 -97.6686
rradius 18.4873
rwrist -2.30858
rhand -13.2202 10.5979
rfingers 7.12502
rthumb 12.8809 -18.9846
lclavicle 1.31198e-014 -1.98785e-014
lhumerus -14.5725 23.3058 88.0125
lradius 31.138
lwrist -21.102
lhand -11.5841 -7.93426
lfingers 7.12502
lthumb 14.4577 21.5421
rfemur -33.9739 -29.5678 4.25568
rtibia 97.4287
rfoot -16.5297 -331.878
rtoes 4.90886
lfemur -42.3247 6.45363 -17.4284
ltibia 95.8524
lfoot -32.0263 -25.1986
ltoes 3.17288
287
root 0.463501 13.8149 -14.8264 345.633 23.123 -0.526511
lowerback 57.1695 -3.44902 6.04016
upperback 10.9986 -0.0909545 -1.58686
thorax -8.86919 0.394976 -4.44364
lowerneck 1.80208 -5.13903 -2.51674
upperneck 10.3631 -7.17945 5.27158
head 3.36139 -3.44137 1.99058
rclavicle 1.98785e-014 1.31198e-014
rhumerus 11.3067 10.1278 -96.957
rradius 19.9296
rwrist -4.94662
rhand -12.7336 10.6554
rfingers 7.12502
rthumb 13.35 -18.897
lclavicle 1.98785e-014 1.31198e-014
lhumerus -14.7512 23.6326 87.807
lradius 30.9876
lwrist -21.1919
lhand -11.5963 -7.75195
lfingers 7.12502
lthumb 14.446 21.7252
rfemur -33.4257 -29.0346 4.82559
rtibia 95.8215
rfoot -16.7395 -332.36
rtoes 4.78939
lfemur -41.5917 6.06513 -17.5199
ltibia 94.2986
lfoot -32.0075 -24.8152
ltoes 3.01424
288
root 0.484514 13.9546 -14.8087 346.017 23.0516 -0.60961
lowerback 56.3851 -3.36447 6.01471
upperback 10.9778 -0.0885783 -1.59644
thorax -8.84657 0.383012 -4.45307
lowerneck 1.64838 -5.1246 -2.66041
upperneck 10.2418 -7.16162 5.32629
head 3.35666 -3.43735 2.03153
rclavicle 2.28602e-014 -4.9895e-014
rhumerus 10.4679 11.4676 -96.4191
rradius 21.2761
rwrist -7.04717
rhand -12.2721 10.7748
rfingers 7.12502
rthumb 13.7948 -18.7478
lclavicle 2.28602e-014 -4.9895e-014
lhumerus -14.9101 23.8609 87.6207
lradius 30.8481
lwrist -21.1571
lhand -11.6548 -7.52865
lfingers 7.12502
lthumb 14.3896 21.9526
rfemur -32.8435 -28.5363 5.38516
rtibia 94.193
rfoot -16.9912 -332.837
rtoes 4.53163
lfemur -40.8597 5.68324 -17.5896
ltibia 92.7512
lfoot -31.9957 -24.4159
ltoes 2.88359
